<svg width="58" height="53" viewBox="0 0 58 53" fill="none" xmlns="http://www.w3.org/2000/svg">
<path d="M14.907 3.06074L14.9045 3.06055C12.4195 2.86881 10.4524 4.12235 8.68797 7.36302L14.907 3.06074ZM14.907 3.06074C18.7534 3.35439 22.6121 4.08625 25.9432 5.48522L25.9514 5.48863M14.907 3.06074L25.9514 5.48863M25.9514 5.48863C35.9048 9.63473 44.4383 16.1628 52.2253 23.9727C52.8215 24.5727 53.3808 25.3192 53.8563 26.1278L53.8613 26.1361M25.9514 5.48863L53.8613 26.1361M53.8613 26.1361C54.7468 27.631 54.8409 28.8005 54.6403 29.5829C54.452 30.3175 53.8876 31.176 52.4462 31.8769L52.4451 31.8774M53.8613 26.1361L52.4451 31.8774M52.4451 31.8774C49.1032 33.5041 45.6278 34.8107 42.0014 36.1741C41.1211 36.505 40.2318 36.8394 39.3333 37.1825C36.3546 38.3162 33.3155 39.4411 30.2619 40.5714C26.0656 42.1246 21.8421 43.688 17.7104 45.2983L17.7092 45.2988M52.4451 31.8774L17.7092 45.2988M17.7092 45.2988C15.3728 46.2106 13.221 47.5333 11.3659 48.6737C11.2907 48.7199 11.2161 48.7658 11.142 48.8113L11.1361 48.8149M17.7092 45.2988L11.1361 48.8149M11.1361 48.8149C8.56321 50.4034 6.57895 50.1829 5.19208 49.095C3.651 47.8862 2.9389 45.8824 3.90778 43.4221C6.98294 35.6666 7.72886 27.712 7.40462 20.3221M11.1361 48.8149L7.40462 20.3221M7.40462 20.3221C7.39653 19.1365 7.36024 18.1008 7.32645 17.1359C7.27575 15.6886 7.23064 14.4008 7.29459 13.006C7.39184 10.8852 7.75284 9.08197 8.68762 7.36367L7.40462 20.3221Z" stroke="#F1DDC4" stroke-width="6.08197"/>
</svg>
