<svg width="47" height="44" viewBox="0 0 47 44" fill="none" xmlns="http://www.w3.org/2000/svg">
<path d="M3.21209 17.0364C3.18616 12.7466 2.55531 8.94107 4.56022 5.27394C6.25402 2.17765 8.62188 0.240299 12.0009 0.499765C15.302 0.750582 18.7329 1.38195 21.7748 2.65334C30.287 6.18208 37.5117 11.7087 44.0104 18.1954C44.6671 18.8527 45.2461 19.6311 45.7214 20.4354C47.6572 23.6874 46.9313 26.9221 43.5178 28.574C40.0005 30.2778 36.2845 31.5752 32.6204 32.9676C26.7526 35.1904 20.8415 37.2834 14.9996 39.5494C13.2626 40.224 11.6379 41.2273 10.0392 42.2046C7.30836 43.8825 4.51702 43.9604 2.35655 42.2738C0.196087 40.5873 -0.642161 37.7851 0.533133 34.8185C2.88372 28.92 3.47135 22.8139 3.21209 17.0364Z" fill="#0CAD8E"/>
</svg>
