<svg width="95" height="95" viewBox="0 0 95 95" fill="none" xmlns="http://www.w3.org/2000/svg">
<rect width="94.5455" height="94.5455" rx="47.2727" fill="#E1F3E2"/>
<path d="M66.7915 29.5123L49.6677 20.2813C47.8652 19.2981 45.6804 19.2981 43.8779 20.2813L26.7541 29.5123C25.4979 30.1951 24.7332 31.506 24.7332 33.0081C24.7332 34.4828 25.4979 35.8211 26.7541 36.5038L43.8779 45.7348C44.7791 46.2264 45.7896 46.4722 46.7728 46.4722C47.756 46.4722 48.7665 46.2264 49.6677 45.7348L66.7915 36.5038C68.0478 35.8211 68.8125 34.5102 68.8125 33.0081C68.8125 31.506 68.0478 30.1951 66.7915 29.5123Z" fill="#F1DDC4"/>
<path d="M41.0648 48.9303L25.1155 40.9556C23.8865 40.3547 22.4663 40.4093 21.3193 41.1194C20.1449 41.8568 19.4622 43.0858 19.4622 44.4513V59.4995C19.4622 62.094 20.9096 64.4427 23.231 65.617L39.1531 73.5917C39.6993 73.8648 40.3002 74.0014 40.901 74.0014C41.6111 74.0014 42.3211 73.8102 42.9493 73.4279C44.1236 72.7178 44.8064 71.4615 44.8064 70.096V55.0478C44.8337 52.426 43.3862 50.0773 41.0648 48.9303Z" fill="#0CAD8E"/>
<path d="M72.2261 41.1192C71.0518 40.4092 69.6316 40.3272 68.43 40.9554L52.5079 48.9301C50.1865 50.1044 48.739 52.4258 48.739 55.0476V70.0958C48.739 71.4613 49.4218 72.7176 50.5961 73.4277C51.2243 73.81 51.9344 74.0012 52.6444 74.0012C53.2453 74.0012 53.8461 73.8647 54.3923 73.5915L70.3144 65.6168C72.6358 64.4425 74.0833 62.1211 74.0833 59.4993V44.4511C74.0833 43.0856 73.4005 41.8566 72.2261 41.1192Z" fill="#0CAD8E"/>
</svg>
