<svg width="21" height="21" viewBox="0 0 21 21" fill="none" xmlns="http://www.w3.org/2000/svg">
<path d="M0.944635 17.9341C0.355939 18.5169 0.351209 19.4667 0.934071 20.0554C1.51693 20.6441 2.46667 20.6488 3.05537 20.0659L0.944635 17.9341ZM20.6702 2.00741C20.6743 1.17899 20.0061 0.50408 19.1777 0.499954L5.67786 0.432727C4.84945 0.428602 4.17454 1.09682 4.17041 1.92524C4.16629 2.75366 4.83451 3.42857 5.66292 3.43269L17.6628 3.49245L17.603 15.4923C17.5989 16.3207 18.2671 16.9956 19.0955 16.9997C19.9239 17.0039 20.5989 16.3357 20.603 15.5072L20.6702 2.00741ZM3.05537 20.0659L20.2256 3.06586L18.1149 0.934006L0.944635 17.9341L3.05537 20.0659Z" fill="#0CAD8E"/>
</svg>
