<svg width="95" height="95" viewBox="0 0 95 95" fill="none" xmlns="http://www.w3.org/2000/svg">
<rect width="94.5455" height="94.5455" rx="47.2727" fill="#E1F3E2"/>
<path d="M61.76 18.2543C61.1865 17.8719 60.4763 17.7899 59.8481 18.0357C55.9425 19.5925 51.6271 19.5925 47.7214 18.0357C47.0932 17.7899 46.3831 17.8719 45.8095 18.2543C45.236 18.6366 44.9082 19.2648 44.9082 19.9476V28.1414V36.3351C44.9082 37.4549 45.8368 38.3836 46.9566 38.3836C48.0765 38.3836 49.0051 37.4549 49.0051 36.3351V30.9273C50.5892 31.3097 52.1733 31.5281 53.7848 31.5281C56.3521 31.5281 58.9195 31.0365 61.3776 30.0533C62.1424 29.7529 62.6613 28.9881 62.6613 28.1414V19.9476C62.6613 19.2648 62.3336 18.6366 61.76 18.2543Z" fill="#F1DDC4"/>
<path d="M74.2691 72.5241H70.8551V44.5288C70.8551 37.9192 67.2225 34.2866 60.6129 34.2866H33.3004C26.6908 34.2866 23.0582 37.9192 23.0582 44.5288V72.5241H19.6441C18.5243 72.5241 17.5957 73.4527 17.5957 74.5726C17.5957 75.6924 18.5243 76.621 19.6441 76.621H25.1066H68.8066H74.2691C75.389 76.621 76.3176 75.6924 76.3176 74.5726C76.3176 73.4527 75.389 72.5241 74.2691 72.5241ZM66.7582 49.3085V72.5241H59.9028V49.3085H66.7582ZM44.8809 72.5241H38.0528V49.3085H44.8809V72.5241ZM48.9778 49.3085H55.8059V72.5241H48.9778V49.3085ZM27.1551 49.3085H33.9559V72.5241H27.1551V49.3085Z" fill="#0CAD8E"/>
</svg>
