<svg width="95" height="95" viewBox="0 0 95 95" fill="none" xmlns="http://www.w3.org/2000/svg">
<rect width="94.5455" height="94.5455" rx="47.2727" fill="#E1F3E2"/>
<path d="M68.358 71.738C65.7633 73.6499 62.3493 74.6331 58.2797 74.6331H35.3918C34.7363 74.6331 34.0808 74.6058 33.4526 74.5239L52.2982 55.6782L68.358 71.738Z" fill="#0CAD8E"/>
<path d="M74.1482 35.8762V58.7641C74.1482 62.8336 73.165 66.2477 71.2531 68.8424L55.1934 52.7826L74.039 33.937C74.1209 34.5652 74.1482 35.2207 74.1482 35.8762Z" fill="#0CAD8E"/>
<path d="M55.1931 52.7828L71.2528 68.8426C70.4608 69.9897 69.5048 70.9456 68.3577 71.7377L52.298 55.6779L33.4523 74.5236C31.7043 74.4143 30.1202 74.0592 28.6727 73.513C22.8278 71.3826 19.5229 66.1933 19.5229 58.7643V35.8764C19.5229 25.9346 25.4498 20.0078 35.3915 20.0078H58.2794C65.7084 20.0078 70.8978 23.3126 73.0281 29.1575C73.5744 30.6051 73.9294 32.1892 74.0387 33.9372L55.1931 52.7828Z" fill="#0CAD8E"/>
<path d="M55.1933 52.783L71.253 68.8428C70.461 69.9899 69.505 70.9459 68.3579 71.7379L52.2981 55.6782L33.4525 74.5238C31.7045 74.4145 30.1204 74.0595 28.6729 73.5132L29.738 72.448L73.0283 29.1577C73.5746 30.6053 73.9296 32.1894 74.0389 33.9374L55.1933 52.783Z" fill="#F1DDC4"/>
<path d="M47.4912 36.2044C46.4533 31.6979 42.4657 29.6767 38.9697 29.6494C35.4737 29.6494 31.4861 31.6705 30.4482 36.1771C29.3011 41.1753 32.3601 45.3541 35.1186 47.9761C36.2111 49.014 37.5768 49.5056 38.9697 49.5056C40.3626 49.5056 41.7283 48.9867 42.8208 47.9761C45.5793 45.3541 48.6383 41.1753 47.4912 36.2044ZM39.0516 40.4652C37.5495 40.4652 36.3204 39.2361 36.3204 37.7339C36.3204 36.2317 37.5221 35.0027 39.0516 35.0027H39.079C40.5812 35.0027 41.8102 36.2317 41.8102 37.7339C41.8102 39.2361 40.5538 40.4652 39.0516 40.4652Z" fill="#F1DDC4"/>
</svg>
